<svg xmlns="http://www.w3.org/2000/svg" xmlns:xlink="http://www.w3.org/1999/xlink" width="125" height="26" viewBox="0 0 125 26"><link xmlns="" type="text/css" rel="stylesheet" id="dark-mode-custom-link"/><link xmlns="" type="text/css" rel="stylesheet" id="dark-mode-general-link"/><style xmlns="" lang="en" type="text/css" id="dark-mode-custom-style"/><style xmlns="" lang="en" type="text/css" id="dark-mode-native-style"/><style xmlns="" lang="en" type="text/css" id="dark-mode-native-sheet"/>
    <defs>
        <path id="6g6h3axrra" d="M0 0h58.058v25.816H0z"/>
        <path id="j9u7x3hjfc" d="M0 0h25.816v25.816H0z"/>
        <path id="rnn4ltl1qe" d="M0 0h8.955v26H0z"/>
        <path id="44h793vh7g" d="M0 0h3.354v26H0z"/>
    </defs>
    <g fill="none" fill-rule="evenodd">
        <g transform="translate(0 .092)">
            <mask id="7mxdne5dnb" fill="#fff">
                <use xlink:href="#6g6h3axrra"/>
            </mask>
            <path d="M45.15 25.816H12.908C5.778 25.816 0 20.037 0 12.908S5.779 0 12.908 0H45.15c7.129 0 12.908 5.779 12.908 12.908s-5.78 12.908-12.908 12.908" fill="#03F" mask="url(#7mxdne5dnb)"/>
        </g>
        <path d="M25.463.092H12.907c7.13 0 12.91 5.779 12.91 12.908s-5.78 12.908-12.91 12.908h12.556c7.13 0 12.908-5.78 12.908-12.908 0-7.13-5.779-12.908-12.908-12.908" fill="#1858FF"/>
        <g transform="translate(0 .092)">
            <mask id="fx0vrmnlid" fill="#fff">
                <use xlink:href="#j9u7x3hjfc"/>
            </mask>
            <path d="M25.816 12.908C25.816 5.779 20.036 0 12.908 0 5.778 0 0 5.779 0 12.908s5.779 12.908 12.908 12.908 12.908-5.779 12.908-12.908" fill="#4689FF" mask="url(#fx0vrmnlid)"/>
        </g>
        <g transform="translate(86.321)">
            <mask id="syw9xerrqf" fill="#fff">
                <use xlink:href="#rnn4ltl1qe"/>
            </mask>
            <path d="M7.278 0A1.68 1.68 0 0 0 5.6 1.678V8.84H3.354V1.678C3.354.752 2.602 0 1.677 0S0 .752 0 1.678v22.644A1.68 1.68 0 0 0 1.677 26a1.68 1.68 0 0 0 1.677-1.678V12.194H5.6v12.128A1.68 1.68 0 0 0 7.278 26a1.68 1.68 0 0 0 1.677-1.678V1.678A1.68 1.68 0 0 0 7.278 0" fill="#111" mask="url(#syw9xerrqf)"/>
        </g>
        <g transform="translate(121.46)">
            <mask id="pyeqjbtmdh" fill="#fff">
                <use xlink:href="#44h793vh7g"/>
            </mask>
            <path d="M1.677 0C.752 0 0 .752 0 1.678v22.644A1.68 1.68 0 0 0 1.677 26a1.68 1.68 0 0 0 1.678-1.678V1.678A1.68 1.68 0 0 0 1.677 0" fill="#111" mask="url(#pyeqjbtmdh)"/>
        </g>
        <path d="M73.776 12.194v5.348c0 .497-.199.96-.56 1.301a1.78 1.78 0 0 1-1.33.49c-.937-.049-1.699-.896-1.699-1.888v-5.25h3.59zm3.915 6.65a1.78 1.78 0 0 1-.56-1.3v-5.35h3.59v5.251c0 .992-.763 1.84-1.7 1.888a1.754 1.754 0 0 1-1.33-.489zM82.397.587a1.68 1.68 0 0 0-1.677 1.677V8.84h-3.59V2.264A1.68 1.68 0 0 0 75.453.587a1.68 1.68 0 0 0-1.677 1.677V8.84h-3.589V2.264A1.68 1.68 0 0 0 68.51.587a1.68 1.68 0 0 0-1.677 1.677v15.28a5.167 5.167 0 0 0 3.385 4.832l.081.028a5.1 5.1 0 0 0 3.366 0l.1-.035a5.127 5.127 0 0 0 1.634-.98l.055-.05.056.05a5.16 5.16 0 0 0 3.417 1.302 5.152 5.152 0 0 0 5.148-5.148V2.264A1.68 1.68 0 0 0 82.397.587zM101.03 2.872c0 .9.73 1.628 1.629 1.628h9.325v3.586c0 2.01-.343 3.715-1.02 5.068a10.84 10.84 0 0 1-2.748 3.51c-1.103.898-2.408 1.594-3.884 2.071-.897.3-1.825.532-2.774.696a1.624 1.624 0 0 0-1.341 1.604c0 1.02.92 1.78 1.923 1.608 1.723-.296 3.239-.737 4.59-1.33 1.94-.816 3.563-1.893 4.965-3.295 1.3-1.302 2.284-2.828 3.003-4.666.684-1.768 1.03-3.733 1.03-5.836V3.341a2.102 2.102 0 0 0-2.096-2.097h-10.973c-.9 0-1.628.73-1.628 1.628" fill="#111"/>
    </g>
</svg>